# xmcd CD database file
#
# Track frame offsets:
#	187
#	10212
#	22202
#	34494
#	46299
#	55889
#	68592
#	78739
#	90299
#	102794
#	112534
#
# Disc length: 1700 seconds
#
# Revision: 1
# Processed by: cddbd v1.5.2PL0 Copyright (c) Steve Scherf et al.
# Submitted via: jetAudio 7
#
DISCID=8006a20b
DTITLE=Jerry Reed and Chet Atkins - Me and Chet
DYEAR=1900
DGENRE=Country
TTITLE0=Jerry's Breakdown
TTITLE1=Limehouse Blues
TTITLE2=Liebestraum
TTITLE3=Serenade For Summer
TTITLE4=Nashtown Ville
TTITLE5=Mystery Train
TTITLE6=The Mad Russian
TTITLE7=Flying South
TTITLE8=Good Stuff
TTITLE9=All I Ever Need Is You
TTITLE10=I Saw The Light
EXTD=BMG Japan BVCP 7399 (1995)
EXTT0=
EXTT1=
EXTT2=
EXTT3=
EXTT4=
EXTT5=
EXTT6=
EXTT7=
EXTT8=
EXTT9=
EXTT10=
PLAYORDER=
